# xmcd CD database file
#
# Track frame offsets:
#	150
#	15603
#	30655
#	56256
#	86606
#	123440
#	133699
#	170501
#	178984
#	191541
#	210502
#	241487
#	264167
#	288012
#	304445
#	322225
#
# Disc length: 4651 seconds
#
# Revision: 2
# Processed by: cddbd v1.5.2PL0 Copyright (c) Steve Scherf et al.
# Submitted via: CDex 1.70beta2
#
DISCID=e2122910
DTITLE=Diverse - In The Mind Of Jamie Cullum - WAV
DYEAR=2007
DGENRE=Jazz
TTITLE0=Nina Simone - I Think It's Going To Rain Today
TTITLE1=Luiz Bonfa - Perdido De Amor
TTITLE2=Mark Murphy - Stolen Moments
TTITLE3=Jamie Cullum - I'd Probably Do It Again
TTITLE4=Laurent Garnier with Bugge Wesseltoft - Acid Eiffel
TTITLE5=Quasimoto - Jazz Cats Pt. 1
TTITLE6=Charles Mingus - Fables OF Faubus
TTITLE7=Jamie Cullum - After You've Gone
TTITLE8=Donovan - Get Thy Bearings
TTITLE9=Elbow - Station Approach
TTITLE10=Cinematic Orchestra - All Things To All Men
TTITLE11=Herbie Hancock - Nobu
TTITLE12=Roni Size and Reprazent - Brown Paper Bag
TTITLE13=Clipse and Pharrell Williams - Mr. Me Too
TTITLE14=Bad Plus - Flim
TTITLE15=Polyphony and Stephen Layton - Sleep
EXTD=YEAR: 2007
EXTT0=
EXTT1=
EXTT2=
EXTT3=
EXTT4=
EXTT5=
EXTT6=
EXTT7=
EXTT8=
EXTT9=
EXTT10=
EXTT11=
EXTT12=
EXTT13=
EXTT14=
EXTT15=
PLAYORDER=
